<?xml version="1.0" encoding="utf-8"?>
<!-- Generator: Adobe Illustrator 17.1.0, SVG Export Plug-In . SVG Version: 6.00 Build 0)  -->
<!DOCTYPE svg PUBLIC "-//W3C//DTD SVG 1.1//EN" "http://www.w3.org/Graphics/SVG/1.1/DTD/svg11.dtd">
<svg version="1.1" id="Layer_1" xmlns="http://www.w3.org/2000/svg" xmlns:xlink="http://www.w3.org/1999/xlink" x="0px" y="0px"
	 viewBox="0 0 402.8 89" enable-background="new 0 0 402.8 89" xml:space="preserve">
	<path fill="#FEC600" d="M121.3,35.1c5.4-10,10.5-19.5,15.9-29.5c9.5,5.1,19.3,7.7,30.2,4.6c0.1,1.7,0.2,2.7,0.2,3.7
		c0,22.2,0,44.3,0,66.5c0,2.9-0.5,4.5-3.9,4.4c-3.1-0.1-6.3,0.4-9.6,0.7c-0.4-1.1-0.7-2-1.1-3.4c-3.8,2.4-7.5,4.6-11.3,6.9
		c-6.8-9.9-13.4-19.8-20.5-30.2c-5,9.5-9.6,18.4-14.4,27.5c-5.9-4-11.7-0.5-17.5-0.2c-1.9,0.1-3.7,0.5-5.7,0.8
		c-0.6-2.7-1.3-5.1-1.6-7.6c-0.3-2.6-1.5-3.3-4-3c-4.2,0.5-8.4,0.7-12.8,1c0-4.3,0-8.3,0-12.9c4.2-0.4,8.5-0.9,13.4-1.4
		c-1.9-8.7-3.8-17-5.8-26.3c-0.7,1.3-1.1,1.9-1.3,2.5c-5,14.6-10,29.1-14.9,43.7c-0.8,2.3-1.7,3.2-4.2,3.2c-15-0.1-30-0.1-45,0
		c-1.8,0-2.9-0.6-3.7-2.2c-4.3-8.2-4.2-8.1,1.2-15.8c8.7-12.4,17.3-25,25.9-37.5c0.5-0.7,0.9-1.6,1.6-2.9c-11.2,0-21.8,0-32.5,0
		c0-6.2,0-12,0-18.1c0.9-0.1,1.8-0.2,2.7-0.2c13.8,0.5,27.6,1.1,41.4,1.4c3.3,0.1,4.4,1.4,5.4,4.5c1.7,5.7,0.4,10.1-2.9,14.9
		c-8.7,12.6-16.8,25.5-25.2,38.3c-0.5,0.8-0.9,1.6-1.6,3c2.6-0.2,4.6-0.3,6.7-0.5c5.7-0.4,11.4-0.7,17-1.3c1-0.1,2.3-1.1,2.7-1.9
		C52.7,52.6,59,37.3,65.3,21.9c0.4-1.1,0.2-2.7-0.2-3.9c-1.5-4-3.2-8-5-12.3c4-1.6,7.7-3,11.7-4.6c0.9,2.6,1.8,5.2,2.9,8.5
		c1.5-3.3,2.7-5.8,4-8.7c3.3,1.8,6.5,3.6,10,5.6c-2,4.4-4.1,8.6-6,12.9c-0.5,1.1-0.7,2.7-0.4,3.8c4.8,15,9.7,29.9,14.5,44.8
		c0.2,0.7,0.6,1.3,1.1,2.4c2.6-4,4.9-7.5,7.2-11.1c1.8-2.8,3.4-5.9,5.5-8.5c2-2.5,1.3-4.1-0.4-6.3c-8-10.4-12.8-17.2-18.3-24.6
		c4.2-3.1,8.2-6.1,12.4-9.2C110.1,18.9,115.5,26.7,121.3,35.1z M150.6,15.9c-0.3-0.1-0.5-0.1-0.8-0.2c-0.5,0.7-1,1.3-1.4,2
		c-5.6,8.7-11.1,17.4-16.8,26c-1.3,1.9-1.2,3.2,0.2,4.9c6.6,8.3,13.1,16.8,19.6,25.2c0.4,0.5,1,0.8,2,1.7
		C152.4,55.1,151.5,35.5,150.6,15.9z"/>
	<path fill="#FEC600" d="M252.1,84.6c-4.8,0.5-9.2,1-14.1,1.6c-0.7-7.7-1.4-15-2-22.3c-1.3-14.4-2.6-28.8-3.8-43.2
		c-0.2-1.8-0.9-2.3-2.6-2.3c-2.8,0.1-5.6,0-8.6,0c0-4.6,0-8.7,0-13.1c5.5-0.3,10.9-0.6,16.4-0.8c12.4-0.5,24.9-0.8,37.3-1.5
		c3.1-0.2,4.3,0.9,4.1,3.8c-0.2,2.8,0.7,3.6,3.6,3.4c8.3-0.8,16.6-1.2,24.9-1.9c1.4-0.1,3-1,3.9-2c7.8-7.9,21.4-8.5,28.6-1.2
		c1,1,2.1,2,2.5,3.2c1.4,3.7,4.1,3.7,7.3,3.5c17.2-0.8,34.4-1.5,51.5-2.2c0.4,0,0.8,0.1,1.6,0.2c-0.4,4.6-0.8,9.2-1.3,14.2
		c-5.1,0-10,0-14.9,0c-8.1,0-8.2,0-8.5,7.9c-0.7,16.7-1.1,33.3-1.7,50c0,1.2,0,2.5,0,3.9c-5.7,0-11,0-16,0c0-6-0.2-11.9,0-17.8
		c0.4-13.6,1-27.2,1.6-40.8c0.1-1.8-0.5-2.8-2.5-2.7c-3.8,0.3-7.6,0.4-11.8,0.7c1.1,4.8-2.1,4.4-5,4.4c-2.7,0-5.4,0.3-8,0.4
		c-1-4.1-1.8-7.9-2.9-11.6c-0.7-2.4-2.1-4.7-5.2-4c-3,0.6-3.8,3.1-3.8,5.8c-0.1,6,3,10.7,6.6,15c4.1,5,8.4,9.7,12.3,14.8
		c4.2,5.5,7,11.7,7.4,18.8c0.5,9.8-6.4,17.8-16.1,18.8c-10,1.1-18.6-3.8-23.4-13.4c-1.2-2.3-2-4.8-3.2-7.7c4.3-1.6,8.2-3.2,12.4-4.8
		c1.2,2.3,2.3,4.4,3.6,6.4c2.9,4.5,6.6,6,9.6,4.1c2.7-1.7,3.1-5.6,0.4-10c-2.5-4-5.5-7.7-8.6-11.3c-6.8-8-13.1-16.3-15.4-26.9
		c-0.2-0.7-1.6-1.8-2.3-1.7c-6.5,0.6-13,1.3-19.5,2.1c-0.7,0.1-1.7,1.2-1.7,1.7c0.3,5,0.8,10,1.3,15.4c5.9-1.1,11.3-2.2,17.3-3.3
		c0.5,4.4,1,8.8,1.5,13.5c-4.8,0.8-9.3,1.6-13.9,2.1c-2.8,0.3-3.8,1.4-3.2,4.3c0.6,2.7,0.8,5.4,0.9,8.2c0.1,2.8,1.4,3.2,3.9,2.9
		c3.4-0.5,6.9-0.8,10.4-0.9c0.7,0,2.1,1,2.2,1.7c0.5,3.1,0.5,6.3,0.8,9.5c0.1,1.5-0.2,2.3-2,2.5c-12.4,1-24.8,2.1-37.5,3.2
		c-0.4-3.5-1-7.2-1.3-11c0-0.6,1-1.7,1.8-1.9c2.6-0.6,5.4-1,8.6-1.5c-5.6-17.5-4.2-35.5-6-53.7c-6.7,0.3-13.2,0.6-19.7,1.1
		c-0.5,0-1.5,1.3-1.5,1.9c0.2,7.5,0.5,14.9,0.8,23c4.4-0.5,8.4-0.8,12.4-1.4c4-0.5,4-0.5,4.4,3.5c0.3,2.9,0.5,5.8,0.7,8.9
		c-4.6,0.6-8.9,1.4-13.1,1.6c-3,0.1-3.5,1.4-3.2,3.9c0.7,6.9,1.2,13.9,1.8,20.8C252.2,81.9,252.1,83.1,252.1,84.6z"/>
	<path fill="#FEC600" d="M170.8,5.4c4.4,0.7,9,1.3,13.5,2.3c12.7,2.8,24.2,7.9,33.8,16.9c11.8,11.1,15.9,29.7,9.6,44.6
		c-3.3,7.7-9.6,12.1-17.3,14.6c-11.1,3.6-22.6,3.6-34.5,3.2c-0.6-4.6-1.3-9.2-2-14.2c3.3,0,6.4,0,10,0c-0.7-2-1.2-3.5-1.7-4.9
		c-3.1-8.8-3.4-18-3.6-27.1c-0.1-5.3-0.2-10.6,0-15.8c0.1-2.6-0.8-3.8-3.4-3.6c-3.5,0.3-4.6-1.3-4.4-4.6
		C171,13.2,170.8,9.7,170.8,5.4z M196.5,39.5c-1.8-1.6-3.3-2.9-4.7-4.2c-0.1,3,0.5,5.6,0.8,8.3c0.7,6.2,1,12.4,2.1,18.5
		c0.8,4.5,3.6,7.9,8.5,8.6c4.5,0.7,8.1-1.3,10.4-5.1c1.1-1.8,1.9-3.8,2.2-5.9c1.3-9.6-1.9-18-7.1-25.9c-0.8-1.2-1.8-2.2-3.1-3.8
		c-0.2,2.1-0.4,3.4-0.5,5.3c-4.5-4.9-8.7-9.5-12.8-14c-0.3,0.1-0.6,0.3-0.9,0.4C193,27.4,194.6,33.1,196.5,39.5z"/>
</svg>
